<?xml version="1.0" ?><svg id="Layer_1" style="enable-background:new 0 0 2409 2500;" version="1.1" viewBox="0 0 2409 2500" xml:space="preserve" xmlns="http://www.w3.org/2000/svg" xmlns:xlink="http://www.w3.org/1999/xlink"><style type="text/css">
	.st0{fill:#EE1D52;}
	.st1{fill:#69C9D0;}
	.st2{fill:none;}
</style><g><path class="st0" d="M540.822205,1543.355835l5.3349,15.061401   C545.473999,1556.693237,543.522217,1551.42334,540.822205,1543.355835z M751.942078,1202.018188   c9.368713-80.934692,41.183044-126.249023,101.135864-172.701904c85.781738-62.913025,192.935608-27.325195,192.935608-27.325195   V790.871094c26.050171-0.69458,52.110718,0.916504,77.876953,4.814514v271.690735c0,0-107.121399-35.587769-192.903076,27.357788   c-59.920349,46.42041-91.799744,91.767212-101.135864,172.701904c-0.292725,43.94812,7.612061,101.39624,44.013123,151.06958   c-8.999939-4.814575-18.173462-10.301147-27.520386-16.460205c-80.186462-56.179321-94.792419-140.464722-94.4021-200.027222   H751.942078z M1566.331543,400.510712c-59.009521-67.467285-81.325073-135.585205-89.392578-183.436874h74.233521   c0,0-14.801147,125.468307,93.068481,248.854752l1.49646,1.659027   C1616.664673,448.507141,1590.003174,425.985046,1566.331543,400.510712z M1923.934204,591.787292v266.22583   c0,0-94.727539-3.871094-164.829712-22.478271c-97.882935-26.023987-160.795898-65.938293-160.795898-65.938293   s-43.460083-28.463806-46.973389-30.44812v549.757568c0,30.61084-8.034912,107.056396-32.530029,170.815308   c-31.976929,83.406982-81.325073,138.155151-90.401001,149.345215c0,0-60.017944,74.005859-165.903198,123.841919   c-95.443115,44.956543-179.240479,43.817871-204.288574,44.956543c0,0-144.856201,5.985596-275.204041-82.398682   c-28.18689-19.480835-54.498047-41.544922-78.59259-65.905884l0.650574,0.488037   c130.380432,88.384033,275.204102,82.398682,275.204102,82.398682c25.080627-1.13855,108.877991,0,204.288513-44.956543   c105.78772-49.83606,165.903198-123.841919,165.903198-123.841919c8.978271-11.190308,58.554077-65.938354,90.401001-149.377808   c24.430054-63.726318,32.530029-140.204468,32.530029-170.815308V673.763   c3.513184,2.016846,46.940796,30.480591,46.940796,30.480591s62.945557,39.946899,160.828491,65.938354   c70.134766,18.607178,164.82959,22.478271,164.82959,22.478271V584.045105   c32.400024,7.579468,60.018066,9.628906,77.942139,7.742126V591.787292z"/></g><path d="M1846.024658,584.045166v208.550049c0,0-94.694824-3.871094-164.82959-22.478271  c-97.882935-26.024048-160.828491-65.938416-160.828491-65.938416s-43.427612-28.463745-46.940796-30.480591v549.822571  c0,30.61084-8.034912,107.088867-32.530029,170.815308c-31.977051,83.439453-81.325073,138.187622-90.401001,149.377808  c0,0-60.050415,74.005859-165.903198,123.841919c-95.410522,44.956543-179.207947,43.817871-204.288574,44.956543  c0,0-144.823669,5.985596-275.204102-82.398682l-0.650574-0.488037c-13.765381-13.907104-26.722717-28.591187-38.80835-43.980591  c-41.605896-52.92627-67.109497-115.51416-73.517944-133.373047c-0.011108-0.075562-0.011108-0.152222,0-0.227783  c-10.312012-31.033691-31.97699-105.560059-29.016785-177.744019c5.237366-127.355103,48.177002-205.52478,59.530029-225.10791  c30.067566-53.402466,69.174133-101.182129,115.579163-141.212769c40.949829-34.542908,87.36499-62.026978,137.341797-81.325134  c54.026794-22.658447,111.879761-34.803101,170.457336-35.78302v211.119934c0,0-107.15387-35.457764-192.903015,27.325134  c-59.95282,46.452881-91.767212,91.767212-101.135864,172.702026c-0.39032,59.5625,14.215637,143.847778,94.337097,200.059692  c9.346924,6.180786,18.520447,11.66748,27.520386,16.460205c13.997314,18.983765,31.033691,35.525635,50.42157,48.957642  c78.267212,51.690186,143.847839,55.301025,227.710266,21.72998c55.919067-22.445557,98.012939-73.029785,117.531006-129.078979  c12.263794-35.002441,12.101196-70.232422,12.101196-106.666016V217.073837h195.180176  c8.067505,47.851669,30.383057,115.969589,89.392578,183.436874c23.671387,25.474335,50.33313,47.996368,79.40564,67.076904  c8.588013,9.271088,52.50354,55.105865,108.87793,83.244354C1783.602539,565.37677,1814.328369,576.521057,1846.024658,584.045166z"/><path class="st1" d="M514.440369,1387.439453v0.162598l4.814392,13.695068c-0.552979-1.593872-2.342163-6.440918-4.814392-13.857788  V1387.439453z"/><path class="st1" d="M875.556213,826.654114c-49.976807,19.298157-96.391968,46.782227-137.341797,81.325134  c-46.419983,40.120911-85.516785,88.001343-115.546692,141.505615c-11.352966,19.518066-54.292603,97.752686-59.529968,225.10791  c-2.960266,72.184082,18.704773,146.710449,29.016785,177.744141c-0.011108,0.075562-0.011108,0.152222,0,0.227661  c6.506042,17.696411,31.911987,80.28418,73.517883,133.373169c12.085632,15.389282,25.04303,30.073608,38.80835,43.980713  c-44.104431-30.503052-83.438721-67.381714-116.717773-109.431152c-41.248047-52.470947-66.686523-114.408081-73.322693-132.689941  c-0.007813-0.130005-0.007813-0.260498,0-0.390381v-0.227783c-10.344543-31.001099-32.074615-105.559937-29.049316-177.841675  c5.237366-127.355103,48.177002-205.52478,59.529968-225.10791c30.021118-53.510254,69.119141-101.39209,115.546692-141.505615  c40.941406-34.55481,87.358643-62.040161,137.341797-81.325073c31.176941-12.935547,63.655457-22.478394,96.874451-28.463806  c50.0625-8.739014,101.192932-9.496582,151.492371-2.244568v60.180542  C987.543823,791.830383,929.633667,803.975464,875.556213,826.654114z"/><path class="st1" d="M1476.938965,217.073837h-195.180176v1036.439331c0,36.433594,0,71.56604-12.101196,106.666016  c-19.713257,56.016724-61.644531,106.60083-117.531006,129.046631c-83.89502,33.70105-149.475586,29.960083-227.710266-21.72998  c-19.421326-13.371948-36.501587-29.858643-50.551697-48.795044c66.653992,35.555298,126.314087,34.937134,200.22229,5.269775  c55.854126-22.445679,97.850342-73.029907,117.498535-129.079102c12.296265-35.002319,12.133667-70.2323,12.133667-106.633423  V151.623413h269.511353C1473.230469,151.623413,1470.2052,177.387192,1476.938965,217.073837z M1846.024658,526.369385v57.675781  c-31.640503-7.536011-62.311157-18.680054-91.409302-33.213196c-56.374634-28.138489-100.290161-73.973328-108.87793-83.244354  c9.965332,6.542694,20.30603,12.495087,30.968628,17.826447c68.540894,34.221619,136.040649,44.436035,169.318848,40.955322  H1846.024658z"/><path class="st2" d="M1486.958252,2204.33374c-2.175537-7.093506-3.272217-14.473389-3.253052-21.892822v-0.520264  C1483.718506,2189.508301,1484.813843,2197.05542,1486.958252,2204.33374L1486.958252,2204.33374z M1648.274658,2181.92041v0.520264  c0.00354,7.418213-1.092529,14.796143-3.25293,21.892822c2.129028-7.281738,3.223999-14.826904,3.25293-22.41333V2181.92041z"/><path class="st1" d="M1483.672729,2182.440918c-0.019165,7.419434,1.077393,14.799316,3.25293,21.892822  c0.107056,0.500732,0.259521,0.990723,0.455444,1.463867c10.669434,34.444336,42.533569,57.92041,78.592651,57.90332v83.244385  c-40.532471,0-69.549194,1.431396-113.855103-24.69043c-50.22644-29.797363-78.527588-84.285156-78.527588-140.85498  c0-58.358887,31.684204-116.815186,85.391357-144.986328c39.036011-20.428955,68.605835-20.55896,107.088745-20.55896v83.211792  c-45.471558,0-82.333496,36.862061-82.333496,82.333496L1483.672729,2182.440918z"/><path class="st0" d="M1648.925293,2182.440918c0.003662,7.418213-1.092529,14.796143-3.25293,21.892822  c0,0.487793-0.292847,0.97583-0.455566,1.463867c-10.687378,34.431641-42.540405,57.899414-78.592529,57.90332v83.244385  c40.499878,0,69.549194,1.431396,113.692383-24.69043c50.389038-29.797363,78.755371-84.285156,78.755371-140.85498  c0-58.358887-31.684326-116.815186-85.391357-144.986328c-39.036133-20.428955-68.605957-20.55896-107.056396-20.55896v83.211792  c45.458984,0.018066,82.301025,36.874756,82.301025,82.333496V2182.440918z"/><path d="M292,1940.352295h304.838928l-28.171021,83.862549H488.77417v320.973877h-98.013031v-320.973877h-98.761169L292,1940.352295  z M1099.883423,1940.352295v83.862549h98.76123v320.973877h98.143188v-320.973877h79.76355l28.171021-83.862549H1099.883423z   M663.167725,2035.925537c26.230103-0.018066,47.479248-21.296143,47.461243-47.526489  c-0.018005-26.230103-21.296326-47.479126-47.526428-47.461182c-26.230103,0.018066-47.479248,21.296387-47.461243,47.526489l0,0  c-0.000061,26.21228,21.249023,47.461426,47.461182,47.461426c0.021729,0,0.043457,0,0.065186,0L663.167725,2035.925537z   M615.641296,2345.188721h96.223816v-275.692139h-96.223816V2345.188721z M1058.049683,2033.518433H945.495789l-97.004578,97.004517  v-189.845215h-95.605713l-0.292725,404.510986h96.516602V2239.79126l30.025208-27.357666l93.686462,132.625h103.185181  l-135.715271-193.944092L1058.049683,2033.518433z M1981.154541,2151.179443l117.661133-117.661011h-112.521484  l-97.037109,97.004517v-189.845215h-95.573364l-0.4552,404.510986h96.549072V2239.79126l30.317993-27.357666l93.686523,132.625  h103.217651L1981.154541,2151.179443z M1733.731201,2181.334961c0,91.40918-75.111938,165.54541-167.757446,165.54541  s-167.757446-74.135986-167.757446-165.54541c0-91.409668,75.111816-165.545532,167.757446-165.545532  c92.645508,0,167.757446,74.168579,167.757446,165.610474V2181.334961z M1648.274658,2181.334961  c0-45.453613-36.847412-82.301025-82.300903-82.301025c-45.453613,0-82.301025,36.847168-82.301025,82.301025  c0,45.453369,36.84729,82.300781,82.300903,82.300781h0.000122c45.428223,0,82.265015-36.807617,82.300903-82.23584V2181.334961z"/></svg>